<svg width="1600" height="640" viewBox="0 0 1600 640" fill="none" xmlns="http://www.w3.org/2000/svg">
  <defs>
    <linearGradient id="bg" x1="0" y1="0" x2="1600" y2="640" gradientUnits="userSpaceOnUse">
      <stop offset="0" stop-color="#0A0F1A"/>
      <stop offset="0.55" stop-color="#101827"/>
      <stop offset="1" stop-color="#061B1A"/>
    </linearGradient>
    <linearGradient id="line" x1="160" y1="92" x2="1450" y2="550" gradientUnits="userSpaceOnUse">
      <stop offset="0" stop-color="#5EEAD4"/>
      <stop offset="0.5" stop-color="#93C5FD"/>
      <stop offset="1" stop-color="#FBBF24"/>
    </linearGradient>
    <linearGradient id="title" x1="210" y1="210" x2="1000" y2="210" gradientUnits="userSpaceOnUse">
      <stop offset="0" stop-color="#F8FAFC"/>
      <stop offset="0.65" stop-color="#D1FAE5"/>
      <stop offset="1" stop-color="#BFDBFE"/>
    </linearGradient>
    <filter id="softGlow" x="-50%" y="-50%" width="200%" height="200%">
      <feGaussianBlur stdDeviation="28" result="blur"/>
      <feColorMatrix in="blur" type="matrix" values="0 0 0 0 0.09 0 0 0 0 0.83 0 0 0 0 0.74 0 0 0 0.42 0"/>
    </filter>
    <pattern id="grid" width="48" height="48" patternUnits="userSpaceOnUse">
      <path d="M48 0H0V48" stroke="#94A3B8" stroke-opacity="0.08" stroke-width="1"/>
    </pattern>
  </defs>

  <rect width="1600" height="640" fill="url(#bg)"/>
  <rect width="1600" height="640" fill="url(#grid)"/>

  <circle cx="1380" cy="110" r="210" fill="#14B8A6" opacity="0.15" filter="url(#softGlow)"/>
  <circle cx="1240" cy="530" r="190" fill="#F59E0B" opacity="0.09" filter="url(#softGlow)"/>

  <path d="M173 470C297 377 407 443 515 350C619 261 740 230 870 292C1006 357 1087 270 1212 204C1302 157 1391 157 1464 194" stroke="url(#line)" stroke-width="3" stroke-linecap="round" opacity="0.58"/>
  <path d="M173 510H1464" stroke="#E2E8F0" stroke-opacity="0.14"/>
  <path d="M173 128H1464" stroke="#E2E8F0" stroke-opacity="0.08"/>

  <g opacity="0.94">
    <rect x="1030" y="168" width="372" height="284" rx="22" fill="#0B1220" stroke="#334155"/>
    <rect x="1030" y="168" width="372" height="54" rx="22" fill="#111827"/>
    <circle cx="1062" cy="195" r="7" fill="#F87171"/>
    <circle cx="1086" cy="195" r="7" fill="#FBBF24"/>
    <circle cx="1110" cy="195" r="7" fill="#34D399"/>
    <text x="1060" y="264" fill="#5EEAD4" font-family="ui-monospace, SFMono-Regular, Menlo, Monaco, Consolas, monospace" font-size="25" letter-spacing="0">$ codex</text>
    <text x="1060" y="310" fill="#CBD5E1" font-family="ui-monospace, SFMono-Regular, Menlo, Monaco, Consolas, monospace" font-size="23" letter-spacing="0">read codebase</text>
    <text x="1060" y="350" fill="#CBD5E1" font-family="ui-monospace, SFMono-Regular, Menlo, Monaco, Consolas, monospace" font-size="23" letter-spacing="0">edit safely</text>
    <text x="1060" y="390" fill="#CBD5E1" font-family="ui-monospace, SFMono-Regular, Menlo, Monaco, Consolas, monospace" font-size="23" letter-spacing="0">run tests</text>
  </g>

  <g>
    <rect x="188" y="112" width="84" height="84" rx="22" fill="#F8FAFC" fill-opacity="0.06" stroke="#5EEAD4" stroke-opacity="0.5"/>
    <path d="M215 142H247V151H215V142Z" fill="#5EEAD4"/>
    <path d="M215 162H239V171H215V162Z" fill="#93C5FD"/>
    <path d="M251 158L262 169L251 180" stroke="#FBBF24" stroke-width="6" stroke-linecap="round" stroke-linejoin="round"/>
  </g>

  <text x="188" y="284" fill="url(#title)" font-family="-apple-system, BlinkMacSystemFont, Segoe UI, PingFang SC, Microsoft YaHei, sans-serif" font-size="104" font-weight="800" letter-spacing="0">CodexGuide</text>
  <text x="193" y="348" fill="#CBD5E1" font-family="-apple-system, BlinkMacSystemFont, Segoe UI, PingFang SC, Microsoft YaHei, sans-serif" font-size="34" font-weight="500" letter-spacing="0">Codex 从入门到精通 · 中文开源教程知识库</text>

  <g font-family="ui-monospace, SFMono-Regular, Menlo, Monaco, Consolas, monospace" font-size="22" fill="#E2E8F0">
    <rect x="190" y="405" width="112" height="42" rx="21" fill="#0F766E" fill-opacity="0.22" stroke="#2DD4BF" stroke-opacity="0.42"/>
    <text x="221" y="433">CLI</text>
    <rect x="324" y="405" width="132" height="42" rx="21" fill="#1D4ED8" fill-opacity="0.18" stroke="#60A5FA" stroke-opacity="0.38"/>
    <text x="358" y="433">Cloud</text>
    <rect x="478" y="405" width="104" height="42" rx="21" fill="#334155" fill-opacity="0.38" stroke="#94A3B8" stroke-opacity="0.32"/>
    <text x="510" y="433">IDE</text>
    <rect x="604" y="405" width="174" height="42" rx="21" fill="#7C2D12" fill-opacity="0.18" stroke="#FBBF24" stroke-opacity="0.36"/>
    <text x="638" y="433">AGENTS.md</text>
    <rect x="800" y="405" width="168" height="42" rx="21" fill="#312E81" fill-opacity="0.18" stroke="#A5B4FC" stroke-opacity="0.34"/>
    <text x="834" y="433">Workflows</text>
  </g>

  <text x="190" y="535" fill="#64748B" font-family="-apple-system, BlinkMacSystemFont, Segoe UI, sans-serif" font-size="24" letter-spacing="0">Install · Prompt · Review · Test · Ship · Share</text>
</svg>
